<?xml version="1.0" standalone="no"?>
<!DOCTYPE svg PUBLIC "-//W3C//DTD SVG 1.1//EN" "http://www.w3.org/Graphics/SVG/1.1/DTD/svg11.dtd" >
<svg xmlns="http://www.w3.org/2000/svg" xmlns:xlink="http://www.w3.org/1999/xlink" version="1.1">
<metadata></metadata>
<defs>
<font id="iconfontuploaded_file" horiz-adv-x="2000" >
<font-face units-per-em="2048" ascent="1638" descent="-410" />
<missing-glyph horiz-adv-x="508" />
<glyph unicode="&#xd;" horiz-adv-x="508" />
<glyph horiz-adv-x="0" />
<glyph horiz-adv-x="0" />
<glyph horiz-adv-x="0" />
<glyph unicode=" "  horiz-adv-x="508" />
<glyph unicode="&#x09;" horiz-adv-x="508" />
<glyph unicode="&#xa0;" horiz-adv-x="508" />
<glyph unicode="&#x2000;" horiz-adv-x="952" />
<glyph unicode="&#x2001;" horiz-adv-x="1905" />
<glyph unicode="&#x2002;" horiz-adv-x="952" />
<glyph unicode="&#x2003;" horiz-adv-x="1905" />
<glyph unicode="&#x2004;" horiz-adv-x="635" />
<glyph unicode="&#x2005;" horiz-adv-x="476" />
<glyph unicode="&#x2006;" horiz-adv-x="317" />
<glyph unicode="&#x2007;" horiz-adv-x="317" />
<glyph unicode="&#x2008;" horiz-adv-x="238" />
<glyph unicode="&#x2009;" horiz-adv-x="381" />
<glyph unicode="&#x200a;" horiz-adv-x="105" />
<glyph unicode="&#x202f;" horiz-adv-x="381" />
<glyph unicode="&#x205f;" horiz-adv-x="476" />
<glyph unicode="&#x25fc;" horiz-adv-x="500" d="M0 0z" />
<glyph unicode="&#xe001;" horiz-adv-x="2048" d="M0 818q0 -286 290 -490l-72 -218l254 128q12 -4 50 -11t54 -10t45 -8t53 -6t50 -1q32 0 68 2q-10 38 -16 76t-6 76q0 238 179 406t437 168q30 0 70 -4q-46 218 -255 363t-477 145q-116 0 -227 -31t-200 -87t-156 -132t-104 -170t-37 -196zM380 1036q0 26 16 47t41 32 t53 11q40 0 65 -25t25 -66t-25 -66t-65 -25q-28 0 -53 12t-41 33t-16 47zM816 364q0 -218 179 -372t437 -154q74 0 218 36l198 -108l-54 180q254 192 254 418q0 142 -86 264t-227 192t-303 70q-258 0 -437 -154t-179 -372zM888 1035q0 39 33 65t75 26t67 -25t25 -65 q0 -28 -12 -48t-32 -32t-48 -12q-42 0 -75 26t-33 65zM1160 528q0 18 10 35t27 27t35 10q40 0 66 -22t26 -50q0 -14 -7 -27t-19 -23t-29 -16t-37 -6q-26 0 -49 22t-23 50zM1558 528q0 26 23 49t49 23q40 0 66 -22t26 -50q0 -14 -7 -27t-18 -23t-29 -16t-38 -6q-16 0 -33 10 t-28 27t-11 35z" />
<glyph unicode="&#xe002;" horiz-adv-x="1670" d="M7 221q-7 -99 33 -119q26 -14 65 15t81 91q32 -132 148 -232q-60 -24 -95 -58t-35 -74q0 -68 91 -116t217 -48q58 0 110 11t92 29t68 43t36 55h10h16h10q18 -60 104 -99t202 -39q128 0 218 48t90 116q0 40 -35 74t-95 58q118 100 148 232q42 -62 81 -91t67 -15 q18 10 27 42t5 77t-18 102t-38 115q-38 92 -86 156t-90 80q2 12 2 24q0 70 -36 128l2 8q0 32 -14 60q-12 250 -161 414t-391 164t-391 -164t-159 -414q-14 -28 -14 -60v-6v-2q-36 -58 -36 -128q0 -12 2 -24q-14 -6 -29 -17t-30 -26t-30 -36t-30 -45t-29 -53t-28 -59 q-48 -118 -55 -217z" />
<glyph unicode="&#xe003;" horiz-adv-x="2050" d="M0 326q0 -14 2 -20q10 -94 49 -172t100 -131t133 -93t160 -65t167 -39t167 -22q174 -12 359 29t346 142t227 241q38 82 39 154t-24 118t-66 81t-77 51t-66 22q-34 6 -45 21t-3 25l8 12q8 14 19 38t9 83t-44 101q-32 32 -85 43t-105 2t-100 -22t-76 -25l-30 -12 q-24 -8 -39 -11t-24 1t-13 8t-3 16t2 21t6 29t7 32q0 36 -5 66t-25 63t-53 50t-94 16t-143 -29q-80 -28 -164 -83t-147 -115t-115 -116t-78 -90l-28 -36q-46 -64 -79 -130t-46 -111t-18 -87t-5 -56zM196 270q0 168 176 288t430 132q168 8 306 -32t220 -123t82 -191 q0 -170 -179 -304t-429 -146t-428 98t-178 278zM438 176q0 -8 4 -28t13 -38t28 -39t45 -35q58 -32 118 -45t115 -8t105 24t92 49t73 70t42 98t-5 118t-53 109t-110 76t-169 15q-242 -28 -290 -238q-14 -64 -8 -116v-12zM536 180q0 42 31 76t77 38q36 4 64 -7t42 -32t14 -47 t-15 -50t-41 -40t-58 -20q-46 -4 -80 20t-34 62zM786 307q4 19 18 31q8 6 16 9t15 3t13 -2t11 -6t9 -10q8 -14 3 -33t-21 -31t-33 -10t-27 16q-8 14 -4 33zM1296 1320q0 -34 24 -57t58 -23q42 6 72 16q8 4 31 4t57 -4t76 -17t83 -34t82 -59t69 -86q62 -140 26 -268 q-2 -4 -5 -12t-7 -28t-4 -38q0 -32 23 -52t57 -20q16 0 26 2t22 9t19 21t9 36h2q30 106 32 200t-24 165t-67 128t-96 97t-109 66t-112 38q-40 10 -85 13t-86 -1t-61 -7t-44 -7l-4 -2h-2l-2 -2q-26 -8 -43 -29t-17 -49zM1378 1062q0 -12 4 -22t11 -17t18 -12t21 -5 q182 40 198 -114q4 -42 -4 -78q0 -6 1 -13t4 -12t7 -10t9 -9t10 -6t11 -4t14 -2q20 0 35 14t19 32v6q28 262 -176 304q-68 14 -128 4q-22 0 -38 -17t-16 -39z" />
<glyph unicode="&#xe004;" horiz-adv-x="1756" d="M0 632q0 -214 97 -401t265 -309q58 262 196 466q62 92 136 168q-10 18 -14 38t-4 42q0 82 58 140t140 58t140 -58t58 -140t-58 -140t-140 -58q-62 0 -112 36q-26 -28 -55 -67t-63 -91q-138 -204 -188 -454q196 -108 422 -108q178 0 341 70t281 187t187 280t69 341 q0 144 -44 278t-125 242t-189 189t-242 125t-278 44q-178 0 -341 -69t-280 -187t-187 -280t-70 -342zM268 624q0 70 16 137t45 126t70 111t93 93t111 70t126 45t137 16q162 0 300 -80t218 -218t80 -300q0 -246 -175 -421t-423 -175q-68 0 -134 14q-14 4 -25 13t-15 23t0 28 q4 22 23 33t39 7q54 -12 112 -12q204 0 348 144t144 346q0 216 -160 362q-142 128 -332 130q-204 0 -348 -144t-144 -348q0 -58 14 -115t40 -109q6 -14 6 -27t-8 -25t-22 -18q-8 -4 -16 -6t-16 -1t-15 5t-13 10t-10 14q-22 42 -37 87t-22 92t-7 93z" />
<glyph unicode="&#xe005;" horiz-adv-x="1242" d="M0 561q0 70 47 116l915 934q51 51 118.5 51t114.5 -51q14 -14 23.5 -30.5t14 -32.5t7 -35t0 -37.5t-7 -35t-14 -32.5t-23.5 -30l-752 -817l752 -817q23 -24 35 -54t12 -63t-12 -63t-35 -54q-47 -51 -117 -51t-116 51l-915 934q-47 47 -47 117z" />
<glyph unicode="&#xe006;" horiz-adv-x="2204" d="M0 103q0 70 52 117l933 915q47 47 117 47t117 -47l933 -915q52 -51 52 -119t-52 -115q-14 -14 -30.5 -23t-32.5 -14t-35 -7t-37.5 0t-35 7t-32.5 14t-30 23l-817 752l-817 -752q-23 -23 -53.5 -34.5t-63 -11.5t-63 11.5t-53.5 34.5q-52 47 -52 117z" />
<glyph unicode="&#xe007;" horiz-adv-x="2204" d="M0 1020.5q0 67.5 52 114.5q14 14 30 23.5t32.5 14t35 7t37.5 0t35 -7t32.5 -14t30.5 -23.5l817 -752l817 752q23 23 53.5 35t63 12t63 -12t53.5 -35q52 -47 52 -117t-52 -117l-933 -915q-47 -46 -117 -46t-117 46l-933 915q-52 52 -52 119.5z" />
<glyph unicode="&#xe008;" horiz-adv-x="1242" d="M0 1494.5q0 32.5 11.5 63t35.5 53.5q46 51 116 51t117 -51l915 -934q47 -46 47 -116t-47 -117l-915 -934q-51 -51 -119 -51t-114 51q-14 14 -23.5 30.5t-14 33t-7 35t0 37t7 35t14 33t23.5 30.5l751 817l-751 817q-24 23 -35.5 53.5t-11.5 63z" />
<glyph unicode="&#xe009;" horiz-adv-x="1536" d="M0 -40v256h256v-256h-256zM0 472v256h256v-256h-256zM0 984v256h256v-256h-256zM384 -40v256h1152v-256h-1152zM384 472v256h1152v-256h-1152zM384 984v256h1152v-256h-1152z" />
<glyph unicode="&#xe00a;" horiz-adv-x="1997" d="M0 562v70q0 492 484 821q242 147 528 147q500 0 838 -475q147 -243 147 -493v-70q0 -483 -475 -821q-263 -147 -519 -147q-548 0 -873 510q-130 217 -130 458zM86 578q0 -391 329 -682q64 245 216 346q95 68 95 77q-165 133 -165 337q0 274 303 406q60 18 104 18h52 q277 0 398 -337l9 -87q0 -194 -165 -346q196 -108 295 -328q0 -16 16 -95q338 292 338 709q0 426 -389 735q-199 136 -416 155q0 9 -77 9h-44q-475 0 -778 -459q-121 -217 -121 -458zM484 -165q262 -156 501 -156h27q230 0 492 147q0 224 -268 416l-60 17q-100 -35 -173 -35 h-18q-53 0 -189 35q-149 -65 -251 -226q-52 -122 -61 -198zM640 648q0 -254 294 -347h104q179 0 293 242l17 105q0 243 -268 346q-58 9 -95 9q-239 0 -336 -277q0 -32 -9 -78z" />
<glyph unicode="&#xe00b;" horiz-adv-x="1997" d="M0 580v52q0 460 456 809q269 155 525 155h35q478 0 818 -447q163 -279 163 -552q0 -523 -498 -861q-238 -129 -465 -129h-69q-499 0 -836 499q-129 243 -129 474zM86 606q0 -491 474 -801q239 -111 447 -111q423 0 732 387q163 251 163 508v26q0 355 -292 654 q-300 241 -611 241q-430 0 -740 -388q-164 -240 -173 -516zM637 132v939q0 99 69 138h551q87 0 103 -120v-957q0 -146 -155 -146h-413q-155 0 -155 146zM680 192h629v819h-629v-819zM904 1105l26 -16h129q12 0 26 25l-26 17h-147q0 -9 -8 -26zM930 81q17 -52 69 -52h17 q11 0 43 43v18q0 42 -43 60h-44q-42 -23 -42 -69z" />
<glyph unicode="&#xe00c;" d="M0 600q0 579 586 913q236 86 414 86q580 0 914 -586q86 -233 86 -413q0 -445 -371 -768q-283 -224 -586 -224h-77q-494 0 -820 482q-146 245 -146 510zM95 574q0 -496 535 -802q227 -78 370 -78q434 0 741 387q164 253 164 510v25q0 511 -526 811q-210 77 -362 77h-34 q-510 0 -811 -526q-77 -190 -77 -362v-42zM413 315v586q15 95 95 95h983q95 0 95 -113v-568q0 -112 -138 -112h-896q-139 0 -139 112zM491 332q265 234 302 259q-167 159 -302 267v-526zM543 271h913q0 9 -301 276q-82 -86 -155 -86q-63 0 -164 86zM543 927 q414 -388 465 -388q66 31 448 388h-913zM1207 591l302 -259v526q-277 -233 -302 -267z" />
<glyph unicode="&#xe00d;" horiz-adv-x="1996" d="M0 560v69q0 483 475 821q261 147 519 147q547 0 873 -510q129 -218 129 -458v-69q0 -517 -527 -847q-237 -121 -475 -121q-527 0 -864 501q-130 238 -130 467zM86 586q0 -425 389 -735q253 -164 511 -164h25q473 0 778 458q121 220 121 458q0 488 -476 787 q-212 112 -423 112h-43q-410 0 -726 -397q-156 -259 -156 -519zM483 646v372q0 129 105 129q146 44 406 44q519 0 519 -130v-415q0 -362 -510 -648q-277 124 -458 406q-62 93 -62 242zM562 629q0 -268 441 -554q423 310 423 494v483q0 45 -432 62q-263 0 -432 -53v-432z M812 473v61q3 18 18 18h130v59h-130q-18 0 -18 18v70q0 17 95 17q-95 192 -95 216h78q26 0 113 -216h8q73 193 104 216h78v-9q0 -24 -86 -207q86 0 86 -17v-70q0 -18 -18 -18h-121v-59h121q18 -3 18 -18v-61q0 -16 -18 -16h-121v-87q0 -18 -17 -18h-60q-17 0 -17 18v87h-130 q-18 0 -18 16z" />
<glyph unicode="&#xe00e;" d="M0 603q0 524 501 862q236 129 464 129h70q482 0 810 -466q155 -244 155 -516v-27q0 -494 -466 -827q-250 -155 -517 -155h-35q-478 0 -818 448q-164 278 -164 552zM95 585q0 -355 293 -654q300 -242 612 -242q465 0 776 440q129 215 129 439v61q0 461 -466 767 q-239 112 -448 112q-424 0 -732 -388q-164 -252 -164 -508v-27zM423 585v27q0 146 129 146h25l9 43q-32 20 -60 68v27q0 74 164 181h17q35 0 103 -60h17q13 0 35 120q37 34 69 34h138q77 0 86 -103v-43q15 0 43 -17q48 69 103 69q57 0 173 -155v-53q-60 -73 -60 -85 q9 -17 9 -26q154 0 154 -113v-60q0 -137 -120 -137q-43 0 -43 -44q31 -19 60 -69v-60q-110 -155 -190 -155q-66 34 -86 69q-52 0 -52 -112q-33 -52 -104 -52h-102q-104 0 -104 155q-19 0 -34 9q0 -45 -104 -69q-62 0 -172 164v26q0 35 60 94l-9 44h-69q-85 0 -85 137z M501 534q2 -17 16 -17h95q31 -14 60 -129q-11 0 -78 -78v-9q0 -12 104 -104h18q69 69 86 69q120 -34 120 -51v-113l43 -7h70q44 0 51 25v95q0 14 129 60q0 -21 69 -78h17q13 0 104 104v9l-77 86q37 103 60 121h95q17 0 17 17v129q0 17 -17 17h-95q-20 4 -60 129 q77 58 77 104q-11 0 -104 95q-11 0 -95 -77q-120 34 -120 51v95q0 13 -26 25h-120q-18 -2 -18 -16v-95q0 -14 -120 -69l-86 78h-18q-12 0 -104 -104v-9l78 -78q-34 -129 -60 -129h-95q-16 -2 -16 -17v-129zM810 594q28 190 190 190q190 -25 190 -190q0 -146 -190 -181 q-123 0 -182 139q0 28 -8 42zM887 585q0 -68 104 -104q96 0 122 104v52q-42 77 -122 77q-57 0 -104 -77v-52z" />
<glyph unicode="&#xe00f;" d="M0 605q0 526 500 862q237 130 465 130h69q482 0 811 -466q155 -250 155 -499v-43q0 -494 -466 -828q-250 -155 -517 -155h-34q-478 0 -819 449q-164 278 -164 550zM95 589q0 -356 293 -656q300 -241 612 -241q465 0 776 440q129 217 129 440v60q0 460 -466 766 q-239 113 -447 113q-425 0 -733 -389q-164 -251 -164 -508v-25zM568 442q13 43 61 43h319v164h-345q-12 0 -26 26v34q15 35 61 35h275l-292 301v35q0 14 33 35q49 0 311 -285l35 -26q309 311 336 311h9q43 -15 43 -53q-2 -16 -301 -318h266q78 0 78 -52q-17 -39 -35 -43 h-344v-164h344q35 -17 35 -52q-12 -42 -61 -42h-318v-225q0 -78 -52 -78q-52 19 -52 70v233h-336q-31 16 -44 51z" />
<glyph unicode="&#xe010;" d="M0 605q0 529 508 869q249 130 466 130h43q563 0 897 -577q86 -211 86 -371v-86q0 -481 -475 -811q-242 -146 -473 -146h-86q-459 0 -794 439q-172 281 -172 553zM95 605q0 -451 413 -760q254 -146 500 -146q474 0 785 457q121 226 121 456q0 504 -500 802 q-201 95 -380 95h-60q-449 0 -758 -448q-121 -240 -121 -456zM698 871q0 183 208 258l51 9v86q14 35 60 35q35 -14 35 -60v-61q109 0 215 -155v-26q0 -13 -34 -34q-46 0 -95 78q-67 42 -86 42v-396q259 -84 259 -302q0 -175 -199 -259l-60 -16v-78q0 -13 -35 -35h-34 q-12 0 -26 27v86q-131 0 -241 164v42q2 17 17 17h34q129 -128 190 -128v431q-106 0 -232 155q-18 60 -27 120zM793 854q0 -108 164 -172v361h-9q-155 -31 -155 -189zM1052 165q120 0 164 180q0 147 -164 216v-396z" />
<glyph unicode="&#xe011;" d="M0 602q0 526 500 862q237 130 466 130h69q482 0 819 -475q146 -265 146 -517q0 -580 -586 -913q-236 -87 -413 -87q-581 0 -915 586q-86 234 -86 414zM95 586q0 -495 482 -785q229 -112 424 -112q353 0 663 293q241 285 241 604v25q0 474 -457 776q-231 121 -456 121 q-425 0 -733 -389q-164 -250 -164 -491v-42zM389 318v25q0 71 102 95q15 -9 35 -9h18l163 217q-17 28 -17 51q23 104 103 104h9q88 0 111 -138l199 -130q61 26 69 26q15 -8 35 -8q12 28 207 258q-17 29 -17 52q0 81 68 112h69q46 -21 69 -69v-43q0 -87 -146 -103 q-170 -206 -199 -251q17 -55 17 -69q-30 -95 -103 -95h-8q-95 0 -112 148q-88 52 -190 128q-35 -25 -121 -33l-164 -199q9 -47 9 -69q0 -80 -113 -95q-93 28 -93 95z" />
<glyph unicode="&#xe012;" d="M0 578v43q0 480 457 828q278 155 508 155h53q498 0 827 -474q155 -241 155 -535q0 -494 -465 -827q-246 -155 -500 -155h-86q-428 0 -768 421q-181 277 -181 544zM95 578q0 -463 466 -768q235 -111 448 -111q423 0 732 388q164 247 164 491v43q0 494 -482 785 q-229 112 -423 112q-454 0 -776 -431q-129 -249 -129 -448v-61zM397 690v147q0 120 155 120q-26 34 -26 77q0 87 129 122h52q102 0 293 -164q165 150 275 164h53q138 -20 138 -104v-43q0 -23 -18 -52q155 0 155 -147v-120q-42 -86 -86 -86v-457q0 -95 -164 -95h-723 q-164 0 -164 121v405l8 17q-77 40 -77 95zM492 699q0 -12 25 -26h441v199h-415q-51 -6 -51 -27v-146zM552 147q9 -26 51 -26h346v465h-372q-25 -5 -25 -68v-371zM621 1027q37 -70 51 -70h215q-88 104 -215 104q-51 -5 -51 -27v-7zM1035 130h353l43 8v440q0 17 -17 17h-379 v-465zM1043 673h423q45 0 51 26v138q-14 35 -60 35h-414v-199zM1113 957h233q20 0 42 70q-9 34 -51 34q-139 0 -224 -104z" />
<glyph unicode="&#xe013;" d="M0 567v87q0 429 425 770q276 182 544 182h62q464 0 813 -458q156 -263 156 -511v-79q0 -469 -476 -805q-246 -147 -476 -147h-96q-474 0 -813 485q-139 245 -139 476zM86 593q0 -316 260 -632h9q0 187 260 372q78 44 112 44q-165 127 -165 268q0 225 269 320h87 q294 -66 294 -320q0 -142 -155 -268q208 -70 302 -234q70 -110 70 -225q0 -26 -35 -26t-86 199q-172 242 -416 242q-289 0 -434 -286q-20 -42 -42 -137q266 -218 588 -218q305 0 580 218q-25 208 -225 397q-156 80 -156 112l112 130q35 66 35 130q0 156 -163 251v35 q0 13 25 26q217 -102 217 -312q0 -137 -114 -251v-9q95 -25 252 -233q78 -145 78 -216q269 269 269 640q0 484 -469 789q-248 121 -441 121q-384 0 -684 -313q-234 -274 -234 -614zM650 628q0 -143 189 -209l44 -7q251 40 251 242q0 160 -198 234h-70q-216 -53 -216 -218 v-42z" />
<glyph unicode="&#xe014;" d="M0 574v60q0 487 476 823q246 147 477 147h86q416 0 753 -382q208 -289 208 -579v-86q0 -482 -502 -823q-242 -130 -477 -130h-51q-465 0 -814 459q-156 273 -156 511zM86 608q0 -437 390 -745q270 -173 520 -173q433 0 753 390q165 273 165 528q0 431 -390 745 q-263 165 -528 165q-484 0 -788 -468q-122 -245 -122 -442zM459 236v173q11 130 130 130h259q156 0 156 -173v-104q0 -173 -112 -173h-330q-92 0 -103 147zM468 781v9h94q0 232 261 329q35 0 69 9l8 -18v-60q-6 -17 -121 -52q-121 -86 -121 -191v-17h104v-9q0 -10 -139 -138 h-8q-131 109 -147 138zM562 245q7 -52 27 -52h259l44 8v226l-44 9h-233q-53 0 -53 -53v-138zM996 825v147q0 156 172 156h200q173 0 173 -156v-147q0 -156 -173 -156h-200q-172 0 -172 156zM1100 106v60q0 10 121 44q99 64 121 165v43h-104v9q0 10 147 147q12 0 147 -147v-9 h-94q0 -220 -226 -312q-31 -17 -69 -17h-26q-17 0 -17 17zM1100 807q0 -12 26 -26h285q13 0 27 26v182q0 13 -27 26h-285q-26 -8 -26 -52v-156z" />
<glyph unicode="&#xe015;" horiz-adv-x="2046" d="M0 -138v1403q0 334 407 334h1223q255 0 327 -98q89 -80 89 -261v-1321q0 -287 -228 -357q-45 -9 -74 -9h-1442q-255 0 -302 309zM107 -154q0 -162 227 -195h1337q194 0 252 122q16 53 16 73v1460q-48 186 -186 186h-1428q-176 0 -218 -178v-1468zM407 988q12 40 57 40 h147v107q0 105 57 105q34 -10 50 -41v-171h146q57 0 57 -57q0 -11 -41 -40h-162v-148q0 -57 -58 -57h-8q-41 19 -41 82v123h-138q-66 5 -66 57zM473 67q0 23 122 146q-122 105 -122 147q16 37 32 41h41l122 -114q126 121 148 121q23 0 48 -48q0 -36 -123 -155 q123 -108 123 -131q0 -57 -57 -57h-9l-130 123l-130 -123h-24q-29 16 -41 50zM1230 197v33q19 41 82 41h343q63 0 82 -41v-9q0 -57 -75 -57h-373q-44 0 -59 33zM1230 963v33q0 12 34 32h416q43 0 57 -32v-8q0 -57 -57 -57h-391q-44 0 -59 32zM1435 51v7q0 57 56 57 q41 -10 41 -57v-7q-14 -31 -48 -41q-33 10 -49 41zM1435 351v34q13 32 56 32q38 -16 41 -32v-9q0 -44 -32 -57h-33q-12 0 -32 32z" />
<glyph unicode="&#xe016;" d="M0 692v17l626 609h35q23 0 87 -86v-35q-400 -391 -400 -401h1617q35 -5 35 -34v-123q0 -33 -35 -33h-1617q400 -389 400 -401v-18q0 -22 -87 -86h-35q-20 0 -626 591z" />
<glyph unicode="&#xe017;" horiz-adv-x="1217" d="M0 1048v35q0 20 591 626h18l608 -626v-35q0 -22 -86 -86h-35q-391 399 -401 399v-1616q-5 -35 -34 -35h-122q-34 0 -34 35v1616q-388 -399 -401 -399h-17q-23 0 -87 86z" />
<glyph unicode="&#xe018;" horiz-adv-x="1217" d="M0 336v35q0 22 87 86h35q390 -399 400 -399v1616q5 35 34 35h123q34 0 34 -35v-1616q388 399 400 399h18q23 0 86 -86v-35q0 -20 -591 -626h-17z" />
<glyph unicode="&#xe019;" d="M0 657v123q0 33 35 33h1617q-400 389 -400 401v18q0 22 87 86h35q20 0 626 -591v-18l-626 -608h-35q-23 0 -87 86v35q400 391 400 401h-1617q-35 5 -35 34z" />
<glyph unicode="&#xe01a;" horiz-adv-x="1274" d="M0 670v20l1234 1215q40 0 40 -40v-20q-849 -854 -1155 -1195q1155 -1148 1155 -1194l-40 -20h-39q-1193 1194 -1195 1234z" />
<glyph unicode="&#xe01b;" horiz-adv-x="2469" d="M0 74v38q1194 1194 1234 1195h20l1215 -1233q0 -40 -40 -40h-20q-853 848 -1195 1154q-1147 -1154 -1193 -1154z" />
<glyph unicode="&#xe01c;" horiz-adv-x="2469" d="M0 1267q0 40 41 40h20q853 -848 1195 -1154q1147 1154 1193 1154l20 -40v-38q-1193 -1194 -1233 -1195h-20z" />
<glyph unicode="&#xe01d;" horiz-adv-x="1274" d="M0 -504q849 854 1155 1195q-1155 1148 -1155 1194l40 20h39q1193 -1194 1195 -1234v-20l-1234 -1215q-40 0 -40 40v20z" />
<glyph unicode="&#xe01e;" horiz-adv-x="2001" d="M0 1414q0 67 85 82h1806q82 0 104 -51q6 -29 6 -31q-17 -85 -73 -85h-1855q-56 0 -73 85zM237 385v20q0 47 82 113q636 639 648 639q7 0 34 6q49 0 141 -108q613 -604 613 -613q8 -15 11 -40q-17 -82 -73 -82h-17q-42 0 -85 57l-506 500v-1091q-18 -76 -76 -76 q0 -3 -8 -3q-85 18 -85 79v1091q-555 -551 -560 -551q-11 -6 -31 -6h-17q-46 0 -71 65z" />
<glyph unicode="&#xe01f;" horiz-adv-x="1526" d="M0 460v23q0 223 202 364v12q0 555 497 907q49 35 64 35q351 -193 509 -618q52 -191 52 -341q202 -138 202 -376q0 -111 -93 -243q-129 -133 -213 -133q-64 0 -64 70q-15 104 -29 104q-105 -174 -162 -174h-410q-50 0 -162 179h-6l-29 -161l-52 -18q-123 0 -254 191 q-52 86 -52 179zM526 1102q0 -193 202 -243q5 0 35 -6q176 0 237 197q6 41 6 46q0 166 -191 231l-58 6q-158 0 -225 -185q-6 -32 -6 -46zM543 -25q8 52 52 52q47 -12 47 -70v-196q0 -46 -35 -64h-17q-47 0 -47 46v232zM722 -31q10 52 47 52q52 0 52 -87v-295q-6 -69 -58 -69 q-26 10 -41 35v364zM884 -31q0 46 47 46h17q35 -14 35 -81v-115q0 -70 -58 -70q-26 10 -41 35v185z" />
<glyph unicode="&#xe020;" horiz-adv-x="2001" d="M0 809v90q105 500 857 500h251q893 0 893 -590q-13 -143 -143 -143h-36q-434 500 -554 500q-54 36 -268 71q-407 0 -786 -535l-35 -18h-54q-125 0 -125 125zM143 95q0 533 608 999q150 54 249 54q513 0 822 -874q17 -94 17 -179v-35q0 -251 -392 -251h-911 q-393 0 -393 286zM643 631q77 -357 357 -357q357 66 357 374q0 285 -357 358q-357 -66 -357 -375z" />
<glyph unicode="&#xe021;" d="M0 -172v388q0 311 272 311h446q252 0 252 -311v-350q-23 -252 -194 -252h-583q-154 0 -193 214zM0 915v350q0 329 272 329h466q252 -20 252 -252v-447q0 -252 -311 -252h-350q-329 0 -329 272zM136 -114q0 -156 136 -156h407q156 0 156 136v370q0 155 -117 155h-427 q-155 0 -155 -136v-369zM136 915q0 -136 175 -136h407q136 0 136 136v388q0 155 -116 155h-466q-136 0 -136 -136v-407zM1106 856v545q0 168 252 193h388q254 0 254 -252v-427q0 -252 -272 -252h-370q-252 23 -252 193zM1165 41q0 28 58 59h39q28 0 57 -59v-213 q0 -101 -57 -116h-39q-27 0 -58 57v272zM1165 293v78q0 27 58 58h39q57 -18 57 -116v-20q0 -29 -77 -77q-29 0 -77 77zM1223 934q0 -137 175 -137h330q103 0 136 79v466q0 116 -118 116h-445q-78 -31 -78 -136v-388zM1455 -75q0 43 98 57l59 -77v-136q0 -28 -59 -57h-39 q-28 0 -59 57v156zM1455 100v271q0 27 59 58h39q28 0 59 -58v-271q0 -28 -59 -59h-39q-28 0 -59 59zM1746 -18q0 28 59 59h39q58 -12 58 -155v-58q0 -101 -58 -116h-39q-28 0 -59 57v213zM1746 216v155q0 27 59 58h39q58 -18 58 -116v-20q0 -103 -77 -136h-20q-28 0 -59 59z " />
<glyph unicode="&#xe022;" horiz-adv-x="2003" d="M0 -25v294q6 36 37 36h129q35 -5 35 -36v-240q0 -146 203 -146h166q36 -7 36 -37v-110q0 -37 -36 -37h-332q-201 0 -238 276zM0 655v91q18 55 110 55h1819q29 0 74 -72v-74q0 -26 -55 -55h-1893q-26 0 -55 55zM0 1151v221q0 330 350 330h220q36 -6 36 -37v-129 q0 -35 -36 -35h-220q-100 0 -149 -92v-258q0 -37 -35 -37h-129q-37 0 -37 37zM1397 -154q5 37 36 37h166q203 0 203 166v220q4 36 35 36h129q37 -5 37 -36v-240q0 -330 -238 -330h-332q-36 0 -36 37v110zM1397 1536v129q5 37 36 37h220q350 0 350 -350v-201q0 -37 -37 -37 h-129q-35 0 -35 37v201q0 149 -149 149h-220q-36 0 -36 35z" />
<glyph unicode="&#xe023;" horiz-adv-x="2097" d="M0 576q0 77 54.5 131t130.5 54q77 0 130.5 -54t53.5 -131q0 -76 -53.5 -130.5t-130.5 -54.5q-76 0 -130.5 54.5t-54.5 130.5zM866 576q0 77 54 131t131 54t130.5 -54t53.5 -131q0 -76 -53.5 -130.5t-130.5 -54.5t-131 54.5t-54 130.5zM1728 576q0 77 54 131t131 54 t130.5 -54t53.5 -131q0 -76 -53.5 -130.5t-130.5 -54.5t-131 54.5t-54 130.5z" />
<glyph unicode="&#xe024;" horiz-adv-x="2003" d="M0 573v52q0 466 460 814q270 157 528 157h44q487 0 823 -477q148 -245 148 -476v-88q0 -420 -382 -754q-287 -208 -580 -208h-88q-481 0 -823 502q-130 243 -130 478zM86 599q0 -434 391 -754q262 -166 529 -166q529 0 832 538q79 224 79 382q0 493 -486 798 q-205 104 -399 104h-61q-501 0 -806 -538q-79 -245 -79 -364zM520 113v521q0 95 139 121h26v8q0 346 243 408q45 0 78 9q222 0 303 -252q9 -57 9 -112v-61h44q130 -25 130 -165v-407q0 -137 -122 -174h-685q-126 0 -165 104zM599 174q0 -66 34 -79h737q34 15 34 62v477 q-19 43 -86 43h-606q-113 0 -113 -78v-425zM772 755h459v121q-48 218 -216 218h-27q-216 -39 -216 -252v-87zM911 460q34 79 95 79q64 -18 86 -62v-35l-26 -86v-60q-5 -22 -60 -44q-33 0 -69 53v77q-26 33 -26 78z" />
<glyph unicode="&#xe025;" horiz-adv-x="1801" d="M0 -168q0 374 460 632q208 77 281 77v8q-374 153 -374 507q0 349 358 507q89 31 187 31q326 0 492 -351q30 -81 30 -202q0 -311 -327 -476q-32 -16 -46 -16v-8q174 0 459 -186q281 -249 281 -508v-61q-8 -24 -47 -24h-1707q-40 0 -47 24v46zM62 -168v-8h1685 q0 229 -242 460q-263 211 -609 211q-425 0 -701 -320q-133 -180 -133 -343zM428 1056q0 -321 343 -452l125 -23q305 0 452 319q24 84 24 164v8q0 325 -374 452q-5 0 -102 8q-317 0 -452 -351q-16 -90 -16 -125z" />
<glyph unicode="&#xe026;" horiz-adv-x="1801" d="M0 -244v864q0 238 214 238v73q0 526 395 708q112 66 313 66q402 0 624 -436q41 -126 41 -312v-99q214 0 214 -223v-888q0 -221 -206 -221h-1381q-214 0 -214 230zM90 -285q0 -71 58 -99h1505q58 30 58 82v988q0 73 -100 82h-1414q-107 0 -107 -107v-946zM304 858h1201v49 q0 492 -329 642q-132 74 -271 74q-385 0 -568 -403q-33 -85 -33 -231v-131zM798 300v24q27 107 107 107q107 -31 107 -116q0 -50 -51 -98v-165q-10 -90 -56 -90q-48 0 -58 90v156q-49 59 -49 92z" />
<glyph unicode="&#xe027;" horiz-adv-x="1800" d="M0 1277v61q2 16 16 16h22q358 0 865 247h9q145 -103 610 -223q270 -29 270 -47v-7q0 -81 8 -124q0 -795 -534 -1430q-218 -216 -363 -216q-306 0 -687 688q-216 442 -216 1035zM85 1223q0 -870 571 -1460q174 -124 240 -124q208 0 518 464q293 502 293 1027v124l7 15 q-284 0 -811 247q-517 -233 -795 -247h-23q0 -8 7 -8zM401 612v9q0 11 47 45h7l333 -324q341 351 602 603q12 0 54 -54v-8q-338 -349 -656 -656q-11 0 -387 385z" />
<glyph unicode="&#xe028;" horiz-adv-x="1801" d="M0 23v1085q0 11 32 30h1737q13 0 32 -30v-1085q0 -12 -24 -23h-1753q-12 0 -24 23zM54 52h1685v1025h-1685v-1025zM210 269q0 157 178 255v15q-50 50 -62 135q35 202 209 202h24q186 -48 186 -179v-39q0 -56 -62 -126q179 -98 179 -271v-6h-23q-13 0 -55 134 q-90 104 -147 113q-37 -21 -102 -31q-47 8 -100 31q-92 -33 -155 -142q-26 -105 -39 -105h-16q-15 0 -15 14zM373 658q49 -134 140 -134q8 0 22 -8q164 33 164 150q-18 173 -164 173q-162 -30 -162 -181zM955 584v22q2 15 15 15h388q16 -2 16 -15v-22q0 -15 -16 -15h-388 q-15 0 -15 15zM955 771v30q2 15 15 15h606q15 -2 15 -15v-30q0 -15 -15 -15h-606q-15 0 -15 15z" />
<glyph unicode="&#xe029;" horiz-adv-x="1598" d="M0 -295v1878q0 222 306 222h988q304 0 304 -180v-1948q0 -147 -208 -180h-1168q-222 21 -222 208zM111 -45h1376v1377h-1376v-1377zM111 -156v-97q0 -139 180 -139h1003q193 0 193 112v124h-1376zM111 1458h1376v152q-20 69 -180 69h-1042q-154 0 -154 -111v-110z M347 915v28q23 56 98 56h376q97 0 97 -84l-56 -41h-430q-73 0 -85 41z" />
<glyph unicode="&#xe02a;" horiz-adv-x="2003" d="M0 569v60q0 455 415 786q265 189 544 189h85q412 0 747 -378q212 -288 212 -581v-85q0 -494 -514 -839q-251 -120 -468 -120h-39q-527 0 -862 521q-120 239 -120 447zM295 470q39 -57 484 -378q0 -6 60 -46h53q47 30 620 703q189 205 189 258q0 66 -99 76 q-30 0 -378 -408q-311 -380 -362 -424q-454 332 -484 332q-83 -20 -83 -83v-30z" />
<glyph unicode="&#xe02b;" d="M0 559v99q0 480 496 813q233 133 450 133h99q460 0 805 -469q150 -264 150 -531q0 -528 -505 -858q-226 -133 -450 -133h-99q-477 0 -813 496q-133 233 -133 450zM585 249q8 -71 61 -71q40 0 345 310h10q121 -106 317 -300q10 0 27 -10q57 0 72 80q0 27 -311 336v10 q311 304 311 344v9q-32 63 -72 63q-27 0 -344 -319q-318 316 -346 319q-70 -15 -70 -72v-27q0 -13 300 -317v-10q-106 -122 -300 -318v-27z" />
<glyph unicode="&#xe02c;" horiz-adv-x="1997" d="M0 571v60q0 454 414 784q264 188 542 188h85q411 0 745 -377q211 -287 211 -579v-85q0 -492 -512 -836q-250 -120 -467 -120h-39q-525 0 -859 520q-120 238 -120 445zM821 1113q40 -723 84 -723q50 -30 104 -30q129 0 129 211q30 330 38 550q0 88 -114 105h-127 q-114 -13 -114 -113zM866 111q0 -108 136 -128q113 0 129 143v8q-28 113 -136 113q-110 0 -129 -136z" />
<glyph unicode="&#xe02d;" horiz-adv-x="1999" d="M0 389v31q0 60 279 567q236 457 318 532q88 80 183 80h16q151 0 350 -414q39 -55 422 -725l-16 -7q-233 16 -294 16q-410 716 -454 764q-30 27 -80 40q-119 0 -318 -447q-314 -586 -326 -596q-80 78 -80 159zM96 -65q0 123 350 692q261 463 271 463q17 0 143 -287 q-438 -719 -438 -788v-9q0 -118 168 -118l1058 31q7 -16 7 -24q-60 -168 -246 -168l-995 -31q-222 0 -311 175q-7 44 -7 64zM590 47v15q165 246 174 246h804q160 0 160 112q0 102 -287 527l-311 500q43 16 88 16q158 0 279 -262q478 -740 493 -828l9 -80v-48 q0 -125 -160 -183q-59 -15 -111 -15h-1138z" />
<glyph unicode="&#xe02e;" horiz-adv-x="1602" d="M0 480v84q0 402 326 539q97 22 144 22h9q84 0 333 -91q312 100 365 100q194 0 372 -206q-220 -159 -220 -372q0 -258 273 -410v-8q-222 -516 -432 -516h-30q-53 0 -259 76l-39 7l-326 -83h-46q-200 0 -409 516q-61 163 -61 342zM797 1149v7q0 311 282 426l106 22l7 -15 q0 -285 -228 -394q-93 -46 -167 -46z" />
<glyph unicode="&#xe02f;" horiz-adv-x="1799" d="M0 356v432q0 157 141 157q103 0 118 -165v-417q0 -132 -86 -172q-26 0 -39 -8q-134 0 -134 173zM339 10v919q1 16 14 16h1100q16 -3 16 -16v-919q0 -82 -125 -87h-87v-258q0 -150 -125 -150q-127 19 -127 126v282h-203v-282q-20 -126 -126 -126q-125 0 -125 150v258h-88 q-124 5 -124 87zM339 1023v9q0 216 290 385v7q-103 134 -103 166v7h16q35 -28 118 -166q81 32 235 48q99 0 244 -48q67 108 118 166h8q15 -3 15 -16q0 -7 -109 -164q167 -77 259 -237q39 -116 39 -148l-16 -9h-1114zM597 1235q18 -55 71 -55q42 16 54 48v30q-14 32 -46 48 h-8q-71 0 -71 -71zM1084 1244q20 -64 64 -64q40 0 62 39v48q-20 39 -62 39t-64 -62zM1547 317v503q18 125 127 125q125 0 125 -150v-478q-18 -134 -134 -134q-96 0 -118 134z" />
<glyph unicode="&#xe030;" horiz-adv-x="1902" d="M0 665v180q0 119 122 167q6 10 41 21v151q0 162 433 208q49 8 122 8h115q279 0 481 -102q74 -43 74 -127v-183q135 -11 306 -139q208 -195 208 -449q0 -235 -167 -416q-189 -184 -413 -184h-36q-275 0 -478 261h-20q-354 0 -559 127q-66 52 -66 98v200q-163 49 -163 179z M65 645q0 -116 453 -159q41 -4 131 -4h65q0 41 49 171h-4q-23 -8 -126 -8h-4q-379 0 -564 131v-131zM65 878q0 -64 245 -135q129 -33 274 -33h45q58 0 159 8v4q-385 0 -588 147q-37 41 -37 94q-79 -38 -98 -85zM229 302q0 -115 440 -171q35 0 102 -4q-35 76 -57 163 q-292 0 -481 122h-4v-110zM229 955q20 -121 493 -167h127q203 204 433 204h40v102q-198 -106 -485 -106h-29q-17 0 -32 -4q-16 4 -33 4h-29q-287 0 -485 106v-139zM229 1192q0 -75 347 -131q181 -12 200 -12q486 23 542 135q4 8 4 12q0 63 -269 118q-119 21 -233 21h-89 q-317 0 -486 -111q-16 -17 -16 -32zM306 441q185 -86 400 -86v61h-4q-273 0 -392 29h-4v-4zM771 400q0 -299 290 -478q125 -57 245 -57q290 0 470 282q61 129 61 249q0 304 -302 482q-118 49 -213 49h-44q-242 0 -425 -249q-82 -144 -82 -278zM1065 731h90q55 -74 163 -302 h4q34 90 160 302h81q8 -2 8 -9q-47 -68 -183 -310h139q8 -1 8 -8v-53q0 -8 -8 -8h-168v-98h168q8 -1 8 -8v-53q0 -8 -8 -8h-168v-135q0 -8 -8 -8h-69q-9 0 -9 8v135h-171q-8 0 -8 8v53q1 8 8 8h171v98h-171q-8 0 -8 8v53q1 8 8 8h143v4q-153 260 -180 315z" />
<glyph unicode="&#xe031;" horiz-adv-x="1799" d="M0 287q0 418 398 775q72 54 186 112q-117 142 -117 166v10q0 134 223 134q0 11 196 16q359 0 398 -96q11 -20 11 -43v-27q0 -24 -101 -144l149 -85q307 -211 429 -604q27 -111 27 -203v-32q0 -684 -881 -684h-37q-881 0 -881 705zM106 293q0 -387 287 -519 q183 -85 483 -85h37q545 0 700 262q80 138 80 342q0 301 -265 598q-210 193 -329 214h-399q-269 -93 -451 -374q-143 -233 -143 -438zM578 1356q113 -144 117 -144h382q16 26 106 138v11q-183 32 -297 32q-110 0 -308 -32v-5zM594 202q0 69 96 69h122v70h-112 q-106 0 -106 80q18 64 64 64h133q10 0 10 11v5q-169 171 -169 182v5q15 85 74 85h10q30 0 154 -138l32 -27q156 171 181 171h5q85 -22 85 -75v-16l-181 -198v-5h149q56 0 64 -75q0 -69 -106 -69h-107v-70h117q96 0 96 -69q-8 -75 -64 -75h-149v-59q0 -123 -90 -123t-90 102 v80h-154q-54 0 -64 75z" />
<glyph unicode="&#xe032;" horiz-adv-x="1601" d="M0 424v286q2 10 11 10h1579q11 -2 11 -10v-370q0 -352 -385 -596q-211 -103 -413 -103q-424 0 -687 350q-116 157 -116 433zM132 459q0 -332 149 -468q217 -232 517 -232q359 0 583 306q88 136 88 315v217h-1337v-138zM270 848v261q0 219 247 374q130 69 286 69 q329 0 495 -286q39 -93 39 -226v-192q0 -10 -11 -10h-116q-11 0 -11 10v241q0 249 -308 340q-75 5 -93 5q-265 0 -380 -242q-16 -48 -16 -128v-216q0 -10 -11 -10h-110q-11 0 -11 10zM600 134v49q0 185 132 226q49 10 71 10q138 0 193 -138q5 -42 5 -69v-78 q-22 -193 -198 -193q-177 0 -203 193zM737 114q0 -41 66 -54q66 0 66 93v54q0 94 -71 94q-61 -17 -61 -59v-128z" />
<glyph unicode="&#xe033;" horiz-adv-x="2010" d="M0 -235v884q0 268 370 268v205q85 576 623 576h93q401 0 554 -514v-267q370 0 370 -268v-884q-38 -226 -255 -226h-1501q-254 34 -254 226zM92 -152q0 -227 254 -227h1317q254 0 254 227v740q0 226 -185 226h-1455q-185 0 -185 -226v-740zM485 917h1039v205 q0 351 -346 453q-117 41 -162 41q-467 0 -531 -494v-205zM739 279l69 42h139v20l-185 165v61h46l208 -144l185 144q46 -6 46 -41v-20l-184 -165v-20h138q33 0 69 -62l-46 -21h-161v-82h138q46 -6 46 -41v-41h-184v-124q0 -41 -47 -41h-23q-46 0 -46 41v124h-185v41 q7 41 46 41h139v82h-162q-46 0 -46 41z" />
<glyph unicode="&#xe034;" horiz-adv-x="1996" d="M0 599v17q0 522 527 864q241 121 475 121h9q542 0 873 -544q112 -217 112 -424v-52q0 -530 -527 -855q-216 -121 -449 -121h-52q-482 0 -821 484q-147 250 -147 510zM86 607q0 -581 597 -864q155 -52 319 -52q578 0 856 597q52 176 52 319q0 533 -527 821 q-177 78 -337 78h-104q-303 0 -596 -268q-260 -294 -260 -631zM423 659q0 327 407 475q79 18 164 26q400 0 570 -389l9 -86v-43q0 -313 -424 -449q-25 0 -147 -147q-17 0 -129 138q-450 134 -450 475zM501 659q0 -304 441 -423q32 -64 52 -69h8q66 98 242 129 q251 141 251 355v8q0 347 -449 415h-104q-441 -77 -441 -415zM631 676q14 40 52 61h34q47 0 69 -52v-43q0 -17 -69 -61q-72 0 -86 95zM916 659q17 78 78 78h34q52 -32 52 -78q0 -45 -78 -78q-52 0 -86 78zM1210 676q14 40 52 61h34q69 0 69 -69v-26q-15 -39 -69 -61 q-72 0 -86 95z" />
<glyph unicode="&#xe035;" horiz-adv-x="1989" d="M0 645q0 315 270 638q323 315 698 315h53q502 0 833 -495q135 -236 135 -473v-53q0 -279 -210 -585h-23v112q135 255 135 526v7q0 494 -510 781q-178 82 -338 82h-82q-478 0 -773 -495q-90 -197 -90 -398q0 -172 97 -443v-120h-7q-188 236 -188 601zM240 22v37 q0 11 23 23q11 0 67 -75q81 -30 203 -30h127q241 0 241 90q13 0 37 15l23 -45q-67 -128 -368 -128q-268 4 -353 113zM240 -76q0 11 23 23q31 -3 52 -68q86 -37 240 -37h105q241 0 241 90q11 0 30 15q15 -4 30 -38q-69 -135 -361 -135q-313 0 -360 135v15zM240 209v15 q90 113 360 113q361 -30 361 -128q0 -107 -361 -135q-360 24 -360 135zM240 -241q0 11 23 23q22 0 60 -75q106 -30 232 -30h83q263 0 263 90q11 0 30 15q14 0 30 -45q-69 -120 -301 -120q-27 -8 -67 -8q-259 0 -353 113v37zM300 202q0 -50 225 -60h143q225 10 225 60v7 q0 48 -210 60h-173q-210 -12 -210 -60v-7zM691 1005q38 33 60 38q44 -33 225 -368q22 -38 30 -38h570q53 0 53 -52q0 -45 -45 -45h-608q-47 0 -105 142q-180 287 -180 323zM923 1343q0 32 53 60q52 -15 52 -60t-52 -45q-29 0 -53 45zM998 -91q59 128 368 128q272 0 353 -113 v-15q0 -109 -353 -135q-304 0 -368 135zM998 -263q15 45 30 45q12 0 68 -75q89 -30 225 -30h83q262 0 262 90q25 15 38 15q15 -25 15 -45v-15q-90 -113 -360 -113q-361 30 -361 128zM1066 -83v-15q0 -48 232 -60h106q255 10 255 60v7q0 56 -300 68q-293 -15 -293 -60z M1704 607q2 18 45 53q34 0 60 -53q-15 -47 -38 -52h-30q-22 5 -37 52z" />
<glyph unicode="&#xe036;" horiz-adv-x="1905" d="M0 699v121q0 139 166 222v101q0 180 278 222q96 28 333 37q529 0 610 -213v-203q177 0 389 -231q129 -187 129 -352q0 -388 -425 -573q-131 -28 -185 -28q-259 0 -472 250q-657 47 -657 259v166q-166 80 -166 222zM65 653q0 -133 444 -166h194q22 0 55 166q-48 0 -157 -9 q-299 0 -518 129h-18v-120zM65 875q80 -150 545 -166h84q18 0 18 18q-546 56 -546 231q-101 -31 -101 -83zM231 302q0 -141 537 -176v9q-41 149 -56 157q-267 0 -453 111h-28v-101zM231 958q0 -125 472 -166h129q20 0 204 129q152 74 286 74v93q-267 -102 -545 -102 q-279 0 -546 102v-130zM231 1189q0 -109 537 -138h9q545 23 545 148q-94 138 -545 138q-546 -23 -546 -148zM342 422q172 -65 315 -65h55v37q0 25 -370 46v-18zM777 394q0 -370 379 -508q70 -19 129 -19h19q229 0 342 130q0 24 -740 739q-129 -109 -129 -342zM943 764 q715 -730 740 -730q157 136 157 360q0 367 -388 518q-121 19 -148 19q-215 0 -361 -148v-19z" />
<glyph unicode="&#xe037;" horiz-adv-x="1608" d="M0 -190v1371h18q331 -302 749 -302h110q369 0 722 274h9v-1251q0 -228 -146 -293q-34 -18 -73 -18h-1179q-151 0 -210 219zM9 1418q51 183 274 183h1042q224 0 274 -201v-55q-274 -310 -786 -310q-659 42 -804 383zM484 276q73 -283 283 -283h64q191 0 284 247q0 23 9 73 q0 246 -293 320h-36q-311 -62 -311 -284v-73z" />
<glyph unicode="&#xe038;" horiz-adv-x="2250" d="M0 -173v513l136 73q42 83 52 136q0 156 -188 220v544q0 17 42 42h2166q17 0 42 -42v-533q-4 -24 -94 -53q-84 -64 -84 -188q0 -131 178 -188v-555q0 -16 -42 -42h-2135q-73 0 -73 73zM366 214h53v681h-53v-681zM743 330q0 -74 94 -74h199q21 -3 21 -21v-125 q10 -84 73 -84q43 14 63 52v157q3 21 21 21h220q84 0 84 84q0 52 -95 52h-209q-21 0 -21 21v189q3 21 21 21h220q84 0 84 83q-27 63 -95 63h-31v21q115 198 115 241q0 16 -42 42h-10q-74 0 -210 -293l-21 -11h-198q-177 302 -189 304h-42q-16 0 -41 -42v-42 q104 -178 104 -220q-95 0 -115 -52q0 -94 84 -94h209q21 -4 21 -21v-189q0 -21 -21 -21h-230q-63 0 -63 -62zM1842 214h42v681h-42v-681z" />
<glyph unicode="&#xe039;" horiz-adv-x="1908" d="M0 701v120q0 140 167 223v102q0 180 278 222q96 28 333 37q531 0 612 -213v-204q176 0 389 -232q129 -187 129 -352q0 -388 -426 -574q-131 -28 -185 -28q-259 0 -472 250q-658 48 -658 260v167q-167 80 -167 222zM65 655q0 -133 445 -167h194q22 0 56 167 q-49 0 -158 -10q-299 0 -519 130h-18v-120zM65 877q80 -150 546 -167h84q18 0 18 19q-546 55 -546 231q-102 -31 -102 -83zM232 303q0 -141 537 -176v9q-41 149 -56 157q-267 0 -454 111h-27v-101zM232 960q0 -125 472 -166h130q19 0 204 129q152 74 287 74v93 q-268 -102 -547 -102t-546 102v-130zM232 1192q0 -110 537 -139h9q547 23 547 148q-95 139 -547 139q-546 -23 -546 -148zM343 423q172 -65 315 -65h55v37q0 25 -370 47v-19zM778 395q0 -371 380 -509q70 -19 130 -19h18q364 0 510 361q28 145 28 167q0 367 -390 519 q-121 19 -148 19q-370 0 -509 -390q-19 -40 -19 -148zM1001 414l27 18h250v260q0 13 28 27q14 0 28 -27v-260h259q14 0 28 -28l-28 -18h-259v-259q0 -14 -28 -28q-13 0 -28 28v259h-250q-13 0 -27 28z" />
<glyph unicode="&#xe03a;" horiz-adv-x="1913" d="M0 695v121q0 140 167 223v102q0 181 279 223q97 28 334 37q532 0 613 -213v-205q177 0 390 -232q130 -188 130 -353q0 -389 -427 -575q-132 -28 -186 -28q-260 0 -474 250q-659 48 -659 260v168q-167 80 -167 222zM65 649q0 -133 446 -167h195q22 0 55 167q-48 0 -157 -9 q-301 0 -520 130h-19v-121zM65 872q80 -151 548 -167h83q19 0 19 18q-548 56 -548 232q-102 -31 -102 -83zM232 296q0 -141 539 -176v9q-41 150 -56 158q-268 0 -455 111h-28v-102zM232 955q0 -125 474 -167h130q19 0 204 130q153 75 288 75v92q-269 -102 -548 -102 q-280 0 -548 102v-130zM232 1188q0 -111 539 -140h9q548 24 548 149q-95 139 -548 139q-548 -23 -548 -148zM344 417q172 -65 315 -65h56v37q0 25 -371 46v-18zM780 389q0 -372 381 -511q70 -18 130 -18h18q365 0 511 362q28 145 28 167q0 368 -390 520q-122 19 -149 19 q-371 0 -511 -390q-18 -41 -18 -149zM1272 389v316q0 13 28 28q13 0 28 -28v-307q46 -55 269 -185v-19q0 -19 -19 -19h-9q-294 188 -297 214z" />
<glyph unicode="&#xe03b;" horiz-adv-x="1909" d="M0 694v120q0 139 167 223v102q0 180 278 222q97 28 333 37q531 0 612 -213v-204q177 0 389 -232q130 -187 130 -352q0 -389 -426 -574q-131 -28 -186 -28q-259 0 -472 250q-658 47 -658 259v167q-167 80 -167 223zM65 647q0 -133 445 -166h194q23 0 56 166q-49 0 -158 -9 q-299 0 -519 130h-18v-121zM65 870q80 -150 547 -167h83q19 0 19 19q-547 55 -547 231q-102 -31 -102 -83zM232 295q0 -141 537 -176v9q-40 150 -55 158q-268 0 -455 111h-27v-102zM232 953q0 -125 472 -167h130q20 0 204 130q153 74 287 74v93q-267 -102 -547 -102 q-279 0 -546 102v-130zM232 1185q0 -110 537 -139h9q547 23 547 148q-94 139 -547 139q-546 -23 -546 -148zM343 416q172 -65 315 -65h56v37q0 24 -371 46v-18zM778 388q0 -371 380 -510q70 -18 130 -18h19q364 0 509 361q28 145 28 167q0 367 -389 519q-121 18 -148 18 q-371 0 -510 -389q-19 -40 -19 -148zM1038 138v18l46 9h492q18 -2 18 -18v-9l-46 -10h-464zM1094 212q0 121 231 315q0 11 139 139h10q12 0 92 -93v-9q-318 -343 -370 -343q-43 -18 -93 -18q0 9 -9 9zM1131 230q14 0 83 19v28q0 37 -65 37q-18 -34 -18 -74v-10zM1186 351 q0 -30 65 -65q25 0 204 195q0 20 -65 74q-34 0 -204 -204zM1409 583q0 -21 65 -75q21 4 64 56q0 21 -64 74q-22 -3 -65 -55z" />
<glyph unicode="&#xe03c;" horiz-adv-x="1996" d="M0 619q0 522 531 865q245 114 433 114h61q525 0 865 -546q106 -242 106 -441v-15q0 -549 -554 -888q-253 -106 -440 -106q-533 0 -873 516q-129 237 -129 501zM281 95h1434v532h-212v-304q0 -11 -23 -23h-956q-11 0 -23 23v554q0 11 23 23h394v212h-637v-1017zM797 862 q0 -30 114 -213v-22h-99v-54h114q11 0 23 -22v-23q0 -11 -23 -23h-114v-53h114q11 0 23 -23v-83h60v83q0 11 23 23h106v53h-106q-11 0 -23 23v23q0 11 23 22h106v54h-91q0 23 114 220v15h-53q-9 0 -129 -205h-8q0 37 -113 205h-61zM1389 596q7 -66 7 -76q19 16 84 190 q78 106 99 114q29 0 98 -46h23v8q-23 108 -23 129q8 91 38 190l-15 7q-293 -91 -311 -91v-23l68 -75q-68 -114 -68 -327z" />
<glyph unicode="&#xe03d;" horiz-adv-x="1996" d="M0 619q0 522 531 865q245 114 433 114h61q525 0 865 -546q106 -242 106 -441v-15q0 -549 -554 -888q-253 -106 -440 -106q-533 0 -873 516q-129 237 -129 501zM364 88q0 -137 137 -137h1009q137 0 137 114v1085q-13 106 -106 106h-107v-75q19 -25 31 -61 q-31 -122 -114 -122q-114 29 -114 114q11 43 30 69v75h-174q-16 0 -38 92l-23 15h-53q-31 0 -46 -99l-15 -8h-159v-60q23 -72 23 -91q0 -81 -114 -107q-84 0 -106 122l30 83v53h-129q-99 0 -99 -136v-1032zM486 95v812q0 11 22 23h995q11 0 22 -23v-812q0 -11 -22 -22h-995 q-10 0 -22 22zM721 346q0 -12 30 -31h190q11 0 23 -22v-122q0 -11 23 -23h22q46 0 46 46v99q0 11 23 22h182q12 0 30 31v23q-19 37 -61 37h-151q-11 0 -23 23v8q0 11 23 23h159q41 0 53 30v30q0 12 -30 31h-106q-16 0 -16 15q129 216 129 243v30q-12 30 -53 30 q-39 0 -197 -303h-8q-161 279 -197 303h-23q-38 -15 -38 -53v-7l129 -258h-129q-30 -13 -30 -53q15 -35 30 -38h190q11 0 23 -23v-8q0 -11 -23 -23h-159q-42 0 -61 -37v-23z" />
<glyph unicode="&#xe03e;" horiz-adv-x="2013" d="M0 597q0 487 465 839q285 162 536 162q538 0 870 -506q142 -270 142 -495q0 -457 -425 -820q-296 -182 -566 -182h-41q-491 0 -829 486q-152 280 -152 516zM880 556q0 -55 51 -81h576q14 0 51 51v71q0 13 -51 50h-425q-14 0 -30 30v557q-26 50 -81 50h-30 q-61 -30 -61 -91v-637z" />
<glyph unicode="&#xe03f;" horiz-adv-x="2462" d="M0 -263v1700q0 158 139 158h2165q158 0 158 -130v-1737q0 -130 -177 -130h-2108q-177 0 -177 139zM195 -203h30q504 536 534 536h20q71 0 320 -279l593 598h39q94 0 369 -330l166 -165h19v1123q-18 114 -126 114h-1837q-127 -11 -127 -134v-1463zM446 684q0 160 203 196 q117 0 180 -149q7 -12 7 -47q-42 -195 -195 -195q-195 51 -195 195z" />
<glyph unicode="&#xe040;" horiz-adv-x="1587" d="M0 -300q0 415 406 733q120 55 120 69q-250 251 -250 483q0 385 414 578q86 26 199 35q388 0 569 -431q26 -92 26 -156v-8q0 -456 -500 -604q-483 0 -656 -285q-138 -176 -138 -423q-33 -86 -104 -86q-86 40 -86 95zM466 985q0 -295 319 -396q34 -9 69 -9h61 q275 0 379 328q9 47 9 95q0 296 -328 405q-56 0 -86 9q-423 -60 -423 -414v-18zM1130 62q13 43 87 43h94v26q0 30 -120 164v17q0 13 26 26h25q103 -103 130 -103q0 12 103 103h9l43 -8v-43q-121 -123 -121 -164v-18h78q103 0 103 -34v-17q-19 -43 -86 -43h-95v-70h121 q46 0 60 -34v-17q-19 -43 -86 -43h-95v-78q0 -78 -60 -78q-35 36 -35 87v69h-94q-87 6 -87 51q0 43 78 43h103v70h-94q-87 6 -87 51z" />
<glyph unicode="&#xe041;" horiz-adv-x="2055" d="M0 -210v1680q0 128 128 128h1440q127 0 127 -83v-502q0 -11 -22 -23h-135l-23 15q8 89 8 128v285h-1335v-1575h555q56 0 82 -173h-727q-98 0 -98 120zM308 473v135q0 11 22 22h315q11 0 23 -22v-135q0 -11 -23 -23h-315q-11 0 -22 23zM308 773v135q0 11 22 22h675 q11 0 23 -22v-135q0 -11 -23 -23h-675q-11 0 -22 23zM308 1133v135q0 11 22 22h923q10 0 22 -22v-135q0 -11 -22 -23h-923q-11 0 -22 23zM855 210q0 371 390 548q67 30 203 45q373 0 570 -390q37 -122 37 -218q0 -406 -465 -577l-135 -15q-387 0 -570 412q-30 88 -30 195z M1028 203q0 -309 337 -420q5 0 98 -8q310 0 420 345q0 49 7 75q0 320 -345 428q-42 0 -82 7q-322 0 -428 -345q0 -31 -7 -82zM1155 270q0 68 195 68q64 172 113 172q41 -12 120 -165q180 -8 180 -75q0 -42 -113 -150v-15q15 -119 23 -135q-20 -60 -38 -60h-7q-10 0 -165 75 q-107 -61 -143 -75q-40 0 -60 60l15 158zM1343 210l45 -67l-8 -38v-30q82 30 90 30q53 -37 68 -37v22l-8 45q8 28 53 75v23q-79 0 -120 90q-47 -88 -120 -113z" />
<glyph unicode="&#xe042;" horiz-adv-x="2223" d="M0 -203v1581q0 220 249 220h575q166 0 278 -240l48 -38h872q201 0 201 -211v-1312q0 -192 -192 -192h-1839q-192 0 -192 192zM134 -136q10 -125 125 -125h1696q87 0 124 77v1217q-26 95 -67 95h-1782q-86 0 -96 -114v-1150zM450 237v10q16 105 106 105h9 q106 -15 106 -105v-10q-16 -105 -106 -105h-9q-106 16 -106 105zM450 688q0 79 115 105q106 -33 106 -105v-19q0 -82 -115 -106q-89 0 -106 125zM862 247q0 88 135 105h689q135 0 135 -124q0 -85 -163 -96h-633q-163 0 -163 115zM862 688q0 105 192 105h575q192 0 192 -124 q0 -76 -125 -96h-709q-125 13 -125 115z" />
<glyph unicode="&#xe043;" horiz-adv-x="2172" d="M0 -23v1278q0 250 249 250h1278q242 0 242 -242v-514q0 -16 -16 -16q-101 98 -101 133v452q0 70 -70 70h-1395q-70 -10 -70 -70v-1395q0 -70 62 -70h398q11 0 23 -24v-70q0 -11 -23 -23h-367q-210 0 -210 241zM312 165q0 66 132 66h661q19 -3 19 -19q-102 -123 -151 -123 h-576q-85 15 -85 76zM312 391q8 46 415 473q305 -293 406 -369q55 32 463 501v19h-217q-95 0 -95 75q0 66 133 66h283q132 0 132 -104v-94q0 -52 -132 -161l-10 19v66h-28q-377 -443 -519 -576l-406 369q-18 0 -303 -321l-37 -29h-10q-75 10 -75 66zM1105 -166q0 67 576 614 q118 142 170 142q36 0 321 -321q0 -47 -189 -199q-25 0 -198 189q13 39 47 57h28q104 -104 133 -104q37 48 37 57q-151 170 -189 179q-623 -583 -623 -633v-56l10 -114h160q53 0 350 321q91 85 103 85q42 0 57 -56q-395 -463 -481 -463h-189q-123 0 -123 94v208z" />
</font>
</defs>
</svg>
